<svg xmlns="http://www.w3.org/2000/svg" width="15" height="15" viewBox="0 0 15 15">
  <defs>
    <style>
      .cls-1 {
        fill: #7347c1;
        fill-rule: evenodd;
      }
    </style>
  </defs>
  <path id="Forma_1_copy" data-name="Forma 1 copy" class="cls-1" d="M570.167,3177.67a7.5,7.5,0,1,0,7.5-7.5A7.5,7.5,0,0,0,570.167,3177.67Zm0.577,0a6.9,6.9,0,0,1,.6-2.82l3.3,9.04A6.907,6.907,0,0,1,570.744,3177.67Zm6.923,6.92a7.005,7.005,0,0,1-1.956-.28l2.077-6.04,2.128,5.83a1,1,0,0,0,.049.09A6.745,6.745,0,0,1,577.667,3184.59Zm5.594-7.05a6.576,6.576,0,0,0,.527-2.48,5.437,5.437,0,0,0-.048-0.72,6.934,6.934,0,0,1-2.593,9.31Zm-1.493-2.13a3.636,3.636,0,0,1,.571,1.91,6.426,6.426,0,0,1-.527,2.23l-0.69,2.31-2.5-7.44c0.418-.02.792-0.06,0.792-0.06a0.291,0.291,0,0,0-.044-0.58s-1.121.09-1.845,0.09c-0.68,0-1.822-.09-1.822-0.09a0.291,0.291,0,0,0-.045.58s0.354,0.04.727,0.06l1.078,2.96-1.515,4.54-2.521-7.5c0.417-.02.793-0.06,0.793-0.06a0.291,0.291,0,0,0-.045-0.58s-1.12.09-1.845,0.09c-0.13,0-.282,0-0.445-0.01a6.916,6.916,0,0,1,10.457-1.3h-0.089a1.194,1.194,0,0,0-1.162,1.22A3.232,3.232,0,0,0,581.768,3175.41Z" transform="translate(-570.156 -3170.16)"/>
</svg>
